<svg xmlns="http://www.w3.org/2000/svg" xmlns:xlink="http://www.w3.org/1999/xlink" version="1.1" width="256" height="256" viewBox="0 0 256 256" xml:space="preserve">
<g style="stroke: none; stroke-width: 0; stroke-dasharray: none; stroke-linecap: butt; stroke-linejoin: miter; stroke-miterlimit: 10; fill: none; fill-rule: nonzero; opacity: 1;" transform="translate(1.4065934065934016 1.4065934065934016) scale(2.81 2.81)">
	<path d="M 74.847 47.995 c 1.912 -0.257 4.522 -1.753 4.214 -3.127 c -0.377 -1.841 -7.104 -6.672 -7.205 -11.555 c -0.134 -10.245 -1.74 -16.533 -4.758 -21.614 C 55.218 -6.724 20.237 -3.295 12.006 21.322 c -3.201 9.076 0.537 31.074 12.545 38.363 c 2.314 1.428 -1.522 11.417 -5.042 18.895 c -2.632 5.025 -5.377 8.971 -8.28 11.419 h 40.984 c -2.765 -1.964 -3.469 -3.286 -3.466 -7.069 c 0.116 -5.879 5.801 -16.485 9.516 -15.361 c 9.813 1.213 12.236 0.488 14.273 -1.903 c 1.167 -1.613 0.869 -3.818 0 -6.253 c -0.321 -1.046 2.376 -0.811 2.447 -2.039 c 0.093 -2.032 -2.58 -2.173 -4.214 -2.991 c 1.861 -0.102 5.222 -0.871 4.758 -2.311 C 75.053 50.863 73.247 48.165 74.847 47.995 z M 27.12 13.491 c 2.259 0 4.091 1.832 4.091 4.091 c 0 0.651 -0.166 1.258 -0.437 1.805 l 3.569 4.02 c 0.563 0.634 0.505 1.604 -0.128 2.166 c -0.292 0.26 -0.656 0.387 -1.018 0.387 c -0.423 0 -0.844 -0.174 -1.148 -0.515 l -3.569 -4.02 c -0.427 0.151 -0.88 0.249 -1.359 0.249 c -2.259 0 -4.091 -1.832 -4.091 -4.091 C 23.029 15.322 24.86 13.491 27.12 13.491 z M 31.04 50.82 v -8.131 l -6.22 -6.925 c -0.433 0.156 -0.894 0.256 -1.382 0.256 c -2.259 0 -4.091 -1.832 -4.091 -4.091 c 0 -2.259 1.832 -4.091 4.091 -4.091 c 2.259 0 4.091 1.832 4.091 4.091 c 0 0.643 -0.162 1.243 -0.426 1.785 l 6.612 7.363 c 0.253 0.282 0.393 0.647 0.393 1.025 v 8.719 c 0 0.847 -0.687 1.534 -1.534 1.534 C 31.727 52.354 31.04 51.667 31.04 50.82 z M 43.085 15.065 v 40.552 c 0 0.199 -0.038 0.395 -0.113 0.578 L 35.41 74.758 c -0.242 0.595 -0.816 0.956 -1.421 0.956 c -0.193 0 -0.389 -0.036 -0.578 -0.114 c -0.785 -0.32 -1.162 -1.214 -0.842 -1.999 l 7.449 -18.285 V 15.065 c -1.498 -0.607 -2.557 -2.072 -2.557 -3.788 c 0 -2.259 1.832 -4.091 4.091 -4.091 c 2.259 0 4.091 1.832 4.091 4.091 C 45.642 12.993 44.583 14.457 43.085 15.065 z M 48.456 31.311 c -0.362 0 -0.725 -0.127 -1.018 -0.387 c -0.633 -0.562 -0.691 -1.532 -0.129 -2.166 l 6.504 -7.326 c -0.27 -0.546 -0.436 -1.153 -0.436 -1.804 c 0 -2.259 1.832 -4.091 4.091 -4.091 c 2.259 0 4.091 1.832 4.091 4.091 c 0 2.259 -1.832 4.091 -4.091 4.091 c -0.479 0 -0.932 -0.098 -1.359 -0.249 l -6.504 7.326 C 49.301 31.136 48.879 31.311 48.456 31.311 z M 59.514 42.127 c -0.479 0 -0.932 -0.098 -1.36 -0.249 l -6.164 6.941 v 9.16 c 0 0.847 -0.687 1.534 -1.534 1.534 c -0.847 0 -1.534 -0.687 -1.534 -1.534 v -9.742 c 0 -0.376 0.138 -0.738 0.387 -1.019 l 6.55 -7.378 c -0.27 -0.546 -0.436 -1.153 -0.436 -1.804 c 0 -2.259 1.832 -4.091 4.091 -4.091 c 2.259 0 4.091 1.832 4.091 4.091 C 63.604 40.296 61.773 42.127 59.514 42.127 z" style="stroke: none; stroke-width: 1; stroke-dasharray: none; stroke-linecap: butt; stroke-linejoin: miter; stroke-miterlimit: 10; fill: rgb(228,168,131); fill-rule: nonzero; opacity: 1;" transform=" matrix(1 0 0 1 0 0) " stroke-linecap="round"/>
</g>
</svg>